:version 1.10
:name ASF
:units
  mass 1
  length 1
  angle deg
:documentation
  ASF file generated by Kaydara
:root
  axis xyz
  order  tx ty tz rx ry rz
  position 0 0 0
  orientation 0 0 0
:bonedata
  begin
    id 1
    name RightUpLegDummy
    direction -0.718183 -0.695806 0.00816078
    length 4.904
    axis 0 0 0 xyz
  end
  begin
    id 2
    name RightUpLeg
    direction 3.53989e-006 -0.995788 0.0916897
    length 17.4976
    axis -3.49089 -0.000906621 0.000287158 xyz
    dof rx ry rz
  end
  begin
    id 3
    name RightLeg
    direction 0.00371093 -0.995096 -0.0988418
    length 16.5821
    axis 3.68512 0.0193738 -0.131023 xyz
    dof rx ry rz
  end
  begin
    id 4
    name RightFoot
    direction 0.000791514 -0.46099 0.887405
    length 3.77069
    axis 4.84075e-005 -0.120479 -0.188788 xyz
    dof rx ry rz
  end
  begin
    id 5
    name RightToes
    direction 0.00124746 -0.014064 0.9999
    length 3.85082
    axis 0.00048216 0.542163 -0.142577 xyz
    dof rx ry rz
  end
  begin
    id 6
    name SpineDummy
    direction 8.36599e-015 1 5.97571e-016
    length 4.6813
    axis 0 0 0 xyz
  end
  begin
    id 7
    name Spine
    direction -4.63632e-008 0.999988 0.00495137
    length 10.1015
    axis -0.00138897 0.000121419 3.25764e-006 xyz
    dof rx ry rz
  end
  begin
    id 8
    name Spine1
    direction 0 0 0
    length 0
    axis -0.00138896 0.000121452 2.39764e-006 xyz
    dof rx ry rz
  end
  begin
    id 9
    name HEadDummy
    direction -3.91456e-008 0.999999 0.00127422
    length 3.43865
    axis -0.00138896 0.000121452 2.39764e-006 xyz
  end
  begin
    id 10
    name HEad
    direction -0.0222688 0.980941 0.193023
    length 5.12695
    axis -0.00138895 0.000121452 2.39764e-006 xyz
    dof rx ry rz
  end
  begin
    id 11
    name LeftShoulder1Dummy
    direction 0.998891 -0.0402508 -0.0244456
    length 3.5433
    axis -0.00138896 0.000121452 2.39764e-006 xyz
  end
  begin
    id 12
    name LeftShoulder1
    direction 0.99951 -0.000327743 0.0313091
    length 4.05031
    axis -0.00138896 0.000121452 2.39764e-006 xyz
    dof rx ry rz
  end
  begin
    id 13
    name LeftArm
    direction 0.998561 -0.00100054 -0.0536182
    length 10.3537
    axis -23.1894 0.134784 0.96751 xyz
    dof rx ry rz
  end
  begin
    id 14
    name LeftForeArm
    direction 0.998903 0.00866434 0.046012
    length 8.70632
    axis -9.91835 -0.06569 -0.177792 xyz
    dof rx ry rz
  end
  begin
    id 15
    name LeftHand
    direction 0.992938 -0.0411636 0.11126
    length 5.32135
    axis -0.00960227 -0.00340091 0.185174 xyz
    dof rx ry rz
  end
  begin
    id 16
    name RightShoulderDummy
    direction -0.998891 -0.0402509 -0.0244414
    length 3.5433
    axis -0.00138896 0.000121452 2.39764e-006 xyz
  end
  begin
    id 17
    name RightShoulder
    direction -0.99951 -0.000327827 0.0313133
    length 4.05031
    axis 0.215806 0.000203644 -0.00680151 xyz
    dof rx ry rz
  end
  begin
    id 18
    name RightArm
    direction -0.998573 -0.000999583 -0.053403
    length 10.3947
    axis -23.2009 -0.134239 -0.9641 xyz
    dof rx ry rz
  end
  begin
    id 19
    name RightForeArm
    direction -0.998898 0.00868026 0.0461306
    length 8.68355
    axis -9.92322 0.0658061 0.178869 xyz
    dof rx ry rz
  end
  begin
    id 20
    name RightHand
    direction -0.992843 -0.0414603 0.112003
    length 5.28593
    axis -0.00960634 0.00330671 -0.185226 xyz
    dof rx ry rz
  end
  begin
    id 21
    name LeftUpLegDummy
    direction 0.718183 -0.695806 0.00816078
    length 4.904
    axis 0 0 0 xyz
  end
  begin
    id 22
    name LeftUpLeg
    direction -6.8115e-006 -0.995793 0.0916336
    length 17.4976
    axis -3.48766 0.00143441 -0.000523914 xyz
    dof rx ry rz
  end
  begin
    id 23
    name LeftLeg
    direction -0.00601357 -0.995091 -0.0987824
    length 16.5821
    axis 3.68177 -0.00654038 -0.00028478 xyz
    dof rx ry rz
  end
  begin
    id 24
    name LeftFoot
    direction -0.00417578 -0.460984 0.887399
    length 3.77069
    axis 1.87232e-006 4.66002e-005 -8.1837e-006 xyz
    dof rx ry rz
  end
  begin
    id 25
    name LeftToes
    direction 0.00818058 -0.00485161 0.999955
    length 3.85048
    axis 1.06246e-005 4.65855e-005 -8.18502e-006 xyz
    dof rx ry rz
  end
:hierarchy
  begin
    root RightUpLegDummy SpineDummy LeftUpLegDummy
    RightUpLegDummy RightUpLeg
    RightUpLeg RightLeg
    RightLeg RightFoot
    RightFoot RightToes
    SpineDummy Spine
    Spine Spine1
    Spine1 HEadDummy LeftShoulder1Dummy RightShoulderDummy
    HEadDummy HEad
    LeftShoulder1Dummy LeftShoulder1
    LeftShoulder1 LeftArm
    LeftArm LeftForeArm
    LeftForeArm LeftHand
    RightShoulderDummy RightShoulder
    RightShoulder RightArm
    RightArm RightForeArm
    RightForeArm RightHand
    LeftUpLegDummy LeftUpLeg
    LeftUpLeg LeftLeg
    LeftLeg LeftFoot
    LeftFoot LeftToes
  end

:SAMPLES-PER-SECOND 24
:FULLY-SPECIFIED
:DEGREES
21
root  2.28877 38.4477 40.1795 -3.89075 6.54398 0.937805
RightUpLeg  -20.3237 -5.00469 2.6215
RightLeg  26.7985 5.76333 2.94464
RightFoot  -1.84921 0.298327 -3.71979
RightToes  -2.08645e-008 3.77894e-005 6.81332e-007
Spine  7.23588 0.414878 1.34761
Spine1  0.819289 -0.753618 6.95417
HEad  -20.3302 -8.04694 -0.779875
LeftShoulder1  8.6687 -14.331 -42.2539
LeftArm  6.90883 16.8146 -24.8547
LeftForeArm  165.755 -68.6781 -154.555
LeftHand  -0.382862 -3.02552 5.5157
RightShoulder  4.39271 7.13306 35.3892
RightArm  21.5005 -0.176383 30.7714
RightForeArm  46.8299 73.6217 35.1861
RightHand  -1.03267 7.42335 -9.68063
LeftUpLeg  -36.4154 19.841 9.0115
LeftLeg  103.46 -1.24065 3.69572
LeftFoot  -2.23905 0.722535 -8.87535
LeftToes  1.24767e-006 1.47042e-008 1.32732e-009
22
root  2.2462 39.1474 40.8459 -10.8306 3.72372 3.42578
RightUpLeg  -10.1182 -4.23366 -0.490597
RightLeg  24.209 7.9929 3.69444
RightFoot  -1.57676 -0.0602251 0.57976
RightToes  -2.08645e-008 3.77894e-005 6.81332e-007
Spine  13.3863 2.91215 3.56009
Spine1  1.29431 3.08772 1.81528
HEad  -16.6945 -12.0733 0.223428
LeftShoulder1  8.28554 -14.0274 -40.9977
LeftArm  7.4787 19.8307 -22.038
LeftForeArm  167.867 -64.3345 -159.325
LeftHand  -0.319316 -2.8357 4.73363
RightShoulder  4.34939 7.12777 35.0083
RightArm  24.8903 4.9545 30.8145
RightForeArm  35.4332 67.8606 24.6294
RightHand  -0.884914 7.95491 -8.03971
LeftUpLeg  -51.8563 23.8649 3.47154
LeftLeg  112.736 -0.25255 -0.0759161
LeftFoot  -5.06913 0.483198 -8.21291
LeftToes  1.24767e-006 1.47042e-008 1.32732e-009
23
root  2.42 39.9168 41.5032 -18.6265 -0.292664 6.18774
RightUpLeg  -0.387455 -2.41331 -3.4785
RightLeg  22.7864 10.8687 4.76148
RightFoot  1.32336 -0.188027 1.77506
RightToes  -2.08645e-008 3.77894e-005 6.81332e-007
Spine  19.4292 4.6958 8.24
Spine1  2.969 7.32336 -5.8235
HEad  -13.4701 -15.984 1.60518
LeftShoulder1  7.75208 -13.5803 -39.2139
LeftArm  7.41062 21.9599 -18.3214
LeftForeArm  169.099 -59.3282 -163.175
LeftHand  -0.305737 -2.87163 4.52578
RightShoulder  4.26214 7.13647 34.164
RightArm  29.2468 9.73378 30.2849
RightForeArm  30.476 63.5575 19.9687
RightHand  -0.76902 8.33705 -6.86021
LeftUpLeg  -65.8794 25.8806 -1.17526
LeftLeg  113.629 0.304589 -1.28931
LeftFoot  -7.98735 0.319303 -9.26168
LeftToes  1.24767e-006 1.47042e-008 1.32732e-009
24
root  2.71986 40.625 42.2165 -25.3365 -5.88516 10.4987
RightUpLeg  5.5267 1.59619 -6.33844
RightLeg  24.0196 12.3417 5.7428
RightFoot  5.62432 0.215897 -1.17547
RightToes  -2.08645e-008 3.77894e-005 6.81332e-007
Spine  23.7528 6.45444 11.4659
Spine1  4.18098 11.4792 -12.3014
HEad  -9.10005 -18.0476 2.51197
LeftShoulder1  7.12384 -12.9807 -37.1386
LeftArm  6.92853 25.0903 -15.0957
LeftForeArm  170.404 -53.8443 -166.298
LeftHand  -0.295359 -3.09304 4.28025
RightShoulder  4.09248 7.06471 32.8348
RightArm  36.1829 14.6467 30.2439
RightForeArm  27.8714 59.226 16.4978
RightHand  -0.580681 9.50165 -4.90738
LeftUpLeg  -78.0597 27.5911 -3.31675
LeftLeg  107.883 0.234453 -1.51313
LeftFoot  -11.8671 0.0298331 -9.73355
LeftToes  1.24767e-006 1.47042e-008 1.32732e-009
25
root  3.02927 41.0876 42.8033 -30.8496 -9.89761 16.3304
RightUpLeg  7.78279 7.00146 -9.84765
RightLeg  27.5892 11.5361 6.25185
RightFoot  8.2882 0.71081 -3.79549
RightToes  -2.08645e-008 3.77894e-005 6.81332e-007
Spine  26.8114 7.38035 11.4099
Spine1  4.45807 14.0145 -17.3123
HEad  -4.80644 -17.5703 2.58554
LeftShoulder1  6.46479 -12.2537 -35.0053
LeftArm  5.45059 29.0119 -13.352
LeftForeArm  171.517 -48.4323 -168.682
LeftHand  -0.259848 -2.99907 3.82719
RightShoulder  3.78739 6.87582 30.5803
RightArm  44.6122 19.1116 32.8277
RightForeArm  27.707 54.5841 13.5314
RightHand  -0.379892 10.6918 -3.15762
LeftUpLeg  -88.0262 27.9692 -4.78445
LeftLeg  98.3109 -0.467519 1.01062
LeftFoot  -14.8136 -0.188916 -9.05553
LeftToes  1.24767e-006 1.47042e-008 1.32732e-009
26
root  3.36772 41.1132 43.3798 -35.4879 -10.6442 20.9539
RightUpLeg  8.55276 11.1695 -13.1515
RightLeg  33.2136 9.76146 6.57979
RightFoot  8.42691 0.745721 -3.94384
RightToes  -2.08645e-008 3.77894e-005 6.81332e-007
Spine  28.9145 6.69126 9.51187
Spine1  4.34648 13.8868 -20.0333
HEad  -2.4961 -15.2031 1.82909
LeftShoulder1  5.99048 -11.6458 -33.5415
LeftArm  1.66454 31.6765 -13.9379
LeftForeArm  172.027 -44.4747 -170.115
LeftHand  -0.268283 -2.50372 4.15657
RightShoulder  3.44826 6.66542 27.9396
RightArm  49.7808 22.3317 36.1608
RightForeArm  30.0558 50.9711 11.5036
RightHand  -0.0113446 11.5078 -0.50485
LeftUpLeg  -94.9513 26.1755 -6.0367
LeftLeg  84.7596 0.358691 9.44825
LeftFoot  -15.9538 -0.361651 -11.0783
LeftToes  1.24767e-006 1.47042e-008 1.32732e-009
27
root  3.67272 40.9151 43.996 -39.0493 -9.89465 23.1537
RightUpLeg  9.60412 13.0976 -15.0161
RightLeg  38.3372 7.95998 6.43714
RightFoot  8.01619 0.697166 -3.76127
RightToes  -2.08645e-008 3.77894e-005 6.81332e-007
Spine  30.6973 5.78215 6.83286
Spine1  3.84902 12.3372 -19.7455
HEad  -2.00483 -12.9757 1.23403
LeftShoulder1  5.88045 -11.4566 -33.3093
LeftArm  -3.34636 30.9835 -16.5147
LeftForeArm  171.893 -42.6458 -170.694
LeftHand  -0.322151 -1.76712 5.40269
RightShoulder  3.28227 6.51177 26.765
RightArm  48.4753 23.6325 35.149
RightForeArm  30.8097 49.7228 10.8865
RightHand  0.0565065 11.3963 -0.0380189
LeftUpLeg  -97.4053 24.3968 -5.64374
LeftLeg  64.7582 5.52475 13.2781
LeftFoot  -7.23133 0.52958 -13.5064
LeftToes  1.24767e-006 1.47042e-008 1.32732e-009
28
root  3.88745 40.7068 44.2188 -41.2177 -9.74243 23.4897
RightUpLeg  10.3022 13.6247 -14.9308
RightLeg  41.2909 6.58648 5.88327
RightFoot  8.25876 0.815467 -4.38743
RightToes  -2.08645e-008 3.77894e-005 6.81332e-007
Spine  31.8124 5.02553 5.12485
Spine1  5.15155 11.5498 -18.9092
HEad  -3.35124 -11.7857 1.9514
LeftShoulder1  6.13573 -11.7587 -34.1942
LeftArm  -7.67076 26.1022 -19.121
LeftForeArm  171.067 -42.7501 -170.61
LeftHand  -0.369382 -1.03461 6.81052
RightShoulder  3.31168 6.46223 27.2408
RightArm  42.0809 23.5487 30.1503
RightForeArm  27.6211 48.7494 10.7164
RightHand  -0.355206 10.5848 -2.99739
LeftUpLeg  -92.3746 23.2945 -1.74527
LeftLeg  35.6672 7.7571 6.57977
LeftFoot  4.42412 2.16969 -15.8142
LeftToes  1.24767e-006 1.47042e-008 1.32732e-009
29
root  4.11473 40.6923 44.6049 -43.1139 -11.8432 24.0944
RightUpLeg  11.0774 14.4171 -14.7195
RightLeg  42.4613 7.00137 6.52865
RightFoot  8.49288 0.992548 -5.3359
RightToes  -2.08645e-008 3.77894e-005 6.81332e-007
Spine  30.9434 4.82242 4.9762
Spine1  7.73784 11.3557 -19.2671
HEad  -5.74729 -9.78536 3.6384
LeftShoulder1  6.37451 -12.0757 -34.9007
LeftArm  -10.2835 20.5407 -21.2622
LeftForeArm  170.56 -44.2945 -170.082
LeftHand  -0.397554 -0.657234 7.74354
RightShoulder  3.32105 6.44153 27.4101
RightArm  35.3267 23.52 26.9878
RightForeArm  23.3648 43.5697 9.08996
RightHand  -0.802001 9.4409 -6.64568
LeftUpLeg  -80.5352 22.4994 11.7943
LeftLeg  10.9917 7.33432 1.87442
LeftFoot  2.07566 2.23102 -19.1062
LeftToes  1.24767e-006 1.47042e-008 1.32732e-009
30
root  4.26464 40.5405 44.7712 -44.2365 -14.075 24.2772
RightUpLeg  10.3379 14.6077 -14.2774
RightLeg  44.4132 7.59212 7.59941
RightFoot  8.84887 1.13877 -6.0446
RightToes  -2.08645e-008 3.77894e-005 6.81332e-007
Spine  29.9345 4.35827 3.42877
Spine1  8.93266 10.4185 -18.477
HEad  -6.83573 -6.03448 5.05403
LeftShoulder1  6.3993 -12.143 -34.8833
LeftArm  -10.7672 18.7037 -23.3924
LeftForeArm  170.668 -46.5565 -169.316
LeftHand  -0.404324 -0.78069 7.72982
RightShoulder  3.26098 6.39261 26.9523
RightArm  32.626 23.4218 26.6613
RightForeArm  20.5383 34.6379 6.5768
RightHand  -0.979397 9.48349 -8.01065
LeftUpLeg  -73.6706 20.9643 19.8113
LeftLeg  6.21792 8.92486 3.0603
LeftFoot  -4.02326 1.08937 -16.2178
LeftToes  1.24767e-006 1.47042e-008 1.32732e-009
